<svg xmlns="http://www.w3.org/2000/svg" viewBox="0 0 1200 420"><rect width="100%" height="100%" rx="18" fill="#0b0c10"/>
<defs><marker id="a" viewBox="0 0 10 10" refX="9" refY="5" markerWidth="8" markerHeight="8" orient="auto-start-reverse"><path d="M0 0L10 5L0 10z" fill="#c8f560"/></marker><style>.b{fill:#12141a;stroke:#23262f;stroke-width:2}.t{font-family:Inter Tight,system-ui,sans-serif;fill:#ecedf1;font-size:22px;text-anchor:middle}.s{font-family:JetBrains Mono,ui-monospace,monospace;fill:#a3a9b6;font-size:15px;text-anchor:middle}.l{stroke:#c8f560;stroke-width:2;fill:none;marker-end:url(#a)}.d{stroke:#7aa2ff;stroke-width:2;fill:none;stroke-dasharray:8 6;marker-end:url(#a)}</style></defs>
<rect class="b" x="20" y="40" width="200" height="60" rx="12"/><text class="t" x="120" y="66">Layer 0 CLAUDE.md</text><text class="s" x="120" y="92">where am I</text><rect class="b" x="20" y="110" width="200" height="60" rx="12"/><text class="t" x="120" y="136">Layer 1 CONTEXT.md</text><text class="s" x="120" y="162">where do I go</text><rect class="b" x="20" y="180" width="200" height="60" rx="12"/><text class="t" x="120" y="206">Layer 2 stage CONTEXT</text><text class="s" x="120" y="232">what do I do</text><rect class="b" x="20" y="250" width="200" height="60" rx="12"/><text class="t" x="120" y="276">Layer 3 memory + config</text><text class="s" x="120" y="302">what rules apply</text><rect class="b" x="20" y="320" width="200" height="60" rx="12"/><text class="t" x="120" y="346">Layer 4 stage output</text><text class="s" x="120" y="372">what am I working on</text><path class="l" d="M120 100 L120 110"/><path class="l" d="M120 170 L120 180"/><path class="l" d="M120 240 L120 250"/><path class="l" d="M120 310 L120 320"/><rect class="b" x="300" y="40" width="200" height="70" rx="12"/><text class="t" x="400" y="71">news-agent</text><text class="s" x="400" y="97">02:00, 8 briefings</text><rect class="b" x="300" y="130" width="200" height="70" rx="12"/><text class="t" x="400" y="161">networking-agent</text><text class="s" x="400" y="187">05:00 Mon/Wed/Fri</text><rect class="b" x="300" y="220" width="200" height="70" rx="12"/><text class="t" x="400" y="251">outreach-agent</text><text class="s" x="400" y="277">6 stages</text><rect class="b" x="300" y="310" width="200" height="70" rx="12"/><text class="t" x="400" y="341">twitter-agent</text><text class="s" x="400" y="367">3 posts/day</text><rect class="b" x="540" y="310" width="200" height="70" rx="12"/><text class="t" x="640" y="341">hygiene-agent</text><text class="s" x="640" y="367">integrity, consolidate</text><path class="l" d="M500 75 L640 160"/><path class="l" d="M500 165 L640 190"/><path class="l" d="M500 255 L640 220"/><rect class="b" x="640" y="120" width="260" height="130" rx="12"/><text class="t" x="770" y="181">memory/ vault</text><text class="s" x="770" y="207">people, companies, decisions, daily logs</text><path class="l" d="M900 185 L960 185"/><rect class="b" x="960" y="120" width="220" height="130" rx="12"/><text class="t" x="1070" y="181">Dashboard</text><text class="s" x="1070" y="207">reads the files directly</text></svg>
